HIERARCHY
ROOT Hips
{
  OFFSET 43.0842 91.1655 101.099
  CHANNELS 6 Xposition Yposition Zposition Zrotation Xrotation Yrotation
  JOINT LeftUpLeg
  {
    OFFSET 8.64259 1.95398 -2.38835
    CHANNELS 3 Zrotation Xrotation Yrotation
    JOINT LeftLeg
    {
      OFFSET 43.7702 0 0
      CHANNELS 3 Zrotation Xrotation Yrotation
      JOINT LeftFoot
      {
        OFFSET 40.6238 0 0
        CHANNELS 3 Zrotation Xrotation Yrotation
        JOINT LeftToeBase
        {
          OFFSET 12.7242 0 0
          CHANNELS 3 Zrotation Xrotation Yrotation
          End Site
          {
            OFFSET 0 0 0
          }
        }
      }
    }
  }
  JOINT RightUpLeg
  {
    OFFSET -8.2249 1.95398 -2.59336
    CHANNELS 3 Zrotation Xrotation Yrotation
    JOINT RightLeg
    {
      OFFSET 43.5653 0 0
      CHANNELS 3 Zrotation Xrotation Yrotation
      JOINT RightFoot
      {
        OFFSET 40.6238 0 0
        CHANNELS 3 Zrotation Xrotation Yrotation
        JOINT RightToeBase
        {
          OFFSET 12.7242 0 0
          CHANNELS 3 Zrotation Xrotation Yrotation
          End Site
          {
            OFFSET 0 0 0
          }
        }
      }
    }
  }
  JOINT Spine
  {
    OFFSET 0.165834 0.87714 6.61349
    CHANNELS 3 Zrotation Xrotation Yrotation
    JOINT Spine1
    {
      OFFSET 7.38963 1.71661e-005 0
      CHANNELS 3 Zrotation Xrotation Yrotation
      JOINT Spine2
      {
        OFFSET 11.9445 1.14441e-005 0
        CHANNELS 3 Zrotation Xrotation Yrotation
        JOINT Spine3
        {
          OFFSET 14.7254 4.19617e-005 0
          CHANNELS 3 Zrotation Xrotation Yrotation
          JOINT Spine4
          {
            OFFSET 10.9679 0 0
            CHANNELS 3 Zrotation Xrotation Yrotation
            JOINT RightShoulder
            {
              OFFSET 2.46616 -1.6653 3.69651
              CHANNELS 3 Zrotation Xrotation Yrotation
              JOINT RightArm
              {
                OFFSET 13.0012 0 0
                CHANNELS 3 Zrotation Xrotation Yrotation
                JOINT RightForeArm
                {
                  OFFSET 28.7848 1.52588e-005 0
                  CHANNELS 3 Zrotation Xrotation Yrotation
                  JOINT RightHand
                  {
                    OFFSET 26.5688 1.52588e-005 0
                    CHANNELS 3 Zrotation Xrotation Yrotation
                    End Site
                    {
                      OFFSET 0 0 0
                    }
                  }
                }
              }
            }
            JOINT LeftShoulder
            {
              OFFSET 2.38034 -1.29275 -3.7523
              CHANNELS 3 Zrotation Xrotation Yrotation
              JOINT LeftArm
              {
                OFFSET 16.3182 6.10351e-005 0
                CHANNELS 3 Zrotation Xrotation Yrotation
                JOINT LeftForeArm
                {
                  OFFSET 27.0901 0 0
                  CHANNELS 3 Zrotation Xrotation Yrotation
                  JOINT LeftHand
                  {
                    OFFSET 24.5451 1.52588e-005 0
                    CHANNELS 3 Zrotation Xrotation Yrotation
                    End Site
                    {
                      OFFSET 0 0 0
                    }
                  }
                }
              }
            }
            JOINT Neck
            {
              OFFSET 5.0226 -0.0266342 0
              CHANNELS 3 Zrotation Xrotation Yrotation
              JOINT Head
              {
                OFFSET 6.69364 2.86102e-005 0
                CHANNELS 3 Zrotation Xrotation Yrotation
                End Site
                {
                  OFFSET 0 0 0
                }
              }
            }
          }
        }
      }
    }
  }
}
MOTION
Frames:	12
Frame Time:	0.0333333
60.0015 91.311 151.535 94.0432 -37.7693 94.8414 -170.673 9.10133 95.942 -33.6158 20.1343 -3.79255 65.3677 6.14815 21.8543 35.228 3.80318 8.40952 173.749 26.5794 79.6672 -28.6817 -1.25105 0.144516 58.3404 0.233304 4.0061 32.4798 -3.29812 3.93331 -1.18697 7.29541 -89.4588 12.3085 -2.10219 1.31671 0.63846 -2.04221 1.40796 -21.9087 -2.40069 0.62378 -1.89609 -2.40069 0.623777 89.2912 -57.9589 -100.104 20.1938 50.3556 -21.5016 -9.57972 -13.4777 -117.9 -7.12503 -0.201583 8.14117 -88.5442 -45.3644 79.9812 -14.1002 9.78947 -61.4255 10.1721 7.40114 -108.656 14.8029 1.61054 0.641022 -21.1297 -12.0309 -11.5745 -6.60768 -12.56 -9.77813 
60.0318 91.3104 151.498 94.0703 -37.7143 94.8285 -170.772 9.08075 95.8263 -33.6436 19.8552 -3.71735 65.3856 6.11353 21.8432 35.1236 3.65953 8.39782 173.637 26.6195 79.5662 -28.7762 -1.65743 0.205832 58.3118 0.294311 3.78413 32.9212 -3.68048 4.46342 -1.18695 7.29575 -89.4817 12.2933 -2.11301 1.27289 0.6234 -2.05495 1.36468 -21.9241 -2.39783 0.578742 -1.91146 -2.39784 0.578731 89.408 -57.6078 -100.015 20.8635 51.0938 -21.8366 -9.76525 -14.0223 -118.143 -6.93533 -0.142718 8.05259 -88.7143 -45.6968 79.7822 -13.6222 9.91227 -61.4297 10.2184 7.06931 -108.788 15.0433 1.63688 0.794703 -21.07 -12.0273 -10.9444 -6.6173 -12.5134 -10.1011 
60.0536 91.3026 151.5 94.104 -37.5894 94.9509 -170.855 9.11386 95.8473 -33.7859 19.4845 -3.57221 65.4101 6.05185 21.7115 35.1417 3.8548 8.0968 173.517 26.4173 79.6419 -28.5509 -1.72426 0.280498 58.418 0.195809 3.54631 33.3132 -3.87766 4.46902 -1.08269 7.29699 -89.4682 12.2909 -1.89945 1.27554 0.620611 -1.84146 1.3579 -21.924 -2.19495 0.645532 -1.91136 -2.19496 0.645525 89.6556 -58.7792 -99.428 21.589 54.717 -23.2864 -9.62749 -16.9926 -118.394 -6.87294 -0.109554 8.20848 -89.2532 -45.3804 78.8658 -14.5624 8.99641 -61.9796 9.96185 9.36178 -108.111 16.0496 1.80122 0.575158 -22.5843 -12.1037 -13.5642 -4.85085 -13.0723 -8.44978 
60.1163 91.2917 151.538 94.2296 -37.749 95.0007 -170.794 8.92049 95.9043 -33.7249 19.7666 -3.63925 65.3678 5.94835 21.789 35.2806 4.01521 8.1657 173.63 26.3512 79.6731 -28.6103 -1.72413 0.180767 58.4781 0.15243 3.45743 33.5056 -3.83728 4.00696 -1.00916 7.31835 -89.5334 12.2465 -1.78445 1.13134 0.576241 -1.73296 1.2088 -21.9675 -2.04195 0.542581 -1.95489 -2.04195 0.542583 90.0087 -58.2813 -99.0367 21.0994 54.7797 -23.0064 -9.47826 -16.7448 -118.319 -7.1723 -0.21891 8.12496 -90.1779 -46.3956 77.649 -14.9991 8.09687 -61.2966 9.76728 10.2212 -108.345 15.826 1.79515 0.0789936 -22.882 -12.4282 -13.0527 -4.47975 -13.4343 -8.91557 
60.0951 91.2615 151.556 94.0685 -37.6557 94.9273 -170.904 9.08396 95.8728 -33.8161 20.1498 -3.55109 65.3403 5.97077 22.1229 35.2311 3.89147 8.26002 173.525 26.6082 79.6727 -28.8724 -1.64803 0.285823 58.4871 0.196965 3.44197 33.3841 -3.93892 4.55896 -0.939775 7.32504 -89.6202 12.2314 -1.68788 0.946697 0.561157 -1.6446 1.02008 -21.9821 -1.89437 0.39551 -1.96945 -1.89436 0.395514 90.7371 -57.3661 -98.1935 21.4433 55.2307 -23.0243 -9.5219 -16.7743 -118.486 -7.47699 -0.336445 7.94675 -91.3056 -47.5359 76.1839 -12.8728 7.66893 -62.5429 8.71979 10.0693 -107.719 16.4925 1.87091 0.48666 -23.0422 -12.8607 -12.9115 -4.03173 -13.9163 -8.76253 
60.1128 91.2246 151.617 94.1497 -37.5874 94.9999 -170.826 9.11416 95.9666 -34.0118 19.9722 -3.56627 65.4225 6.06189 21.9238 35.3461 4.06372 8.24677 173.472 26.5411 79.7359 -29.0039 -1.68955 0.291207 58.6595 0.0669097 3.16105 33.7905 -4.01862 4.1407 -0.860597 7.34533 -89.7013 12.1892 -1.56915 0.770853 0.518918 -1.5337 0.839171 -22.0235 -1.72825 0.263501 -2.01085 -1.72826 0.263502 91.1667 -57.014 -97.652 20.8088 55.7477 -22.8952 -9.13897 -16.8751 -118.291 -7.44724 -0.326748 7.93888 -92.6401 -48.7129 74.4607 -12.2354 6.95764 -62.5791 8.27182 10.4552 -107.702 16.6436 1.88271 0.708879 -23.493 -13.1849 -12.7546 -3.5615 -14.3293 -9.13743 
60.1355 91.1877 151.711 94.1647 -37.4677 94.866 -170.8 9.04184 95.8982 -33.9966 19.7363 -3.58743 65.4767 6.14602 21.7572 35.3366 4.09648 8.16352 173.488 26.6938 79.6707 -29.5227 -1.04931 0.184922 59.176 -0.451867 3.50531 33.6183 -3.89685 4.01798 -0.793662 7.34949 -89.7748 12.1796 -1.47092 0.612947 0.509316 -1.44249 0.677096 -22.0324 -1.5871 0.142434 -2.01975 -1.58711 0.142445 91.6181 -56.4504 -97.1124 20.3744 56.2679 -22.6191 -9.10328 -16.7753 -118.351 -7.55186 -0.355054 8.04733 -94.1379 -50.0008 72.5776 -11.3667 6.30943 -62.4306 7.91564 10.5363 -107.865 16.6985 1.88244 0.88132 -23.9722 -13.5123 -12.2731 -2.97314 -14.7381 -9.71167 
60.1491 91.1631 151.889 94.3159 -37.4522 94.9674 -170.66 8.83205 96.1031 -33.9095 19.9737 -3.65115 65.5439 6.23647 21.8687 35.3146 4.14746 8.0151 173.374 26.77 79.7879 -30.1242 -1.00364 0.203044 59.8625 -1.02858 3.36629 33.12 -3.57005 3.76177 -0.706835 7.37651 -89.8502 12.1242 -1.33417 0.446162 0.453792 -1.31323 0.504459 -22.0868 -1.40658 0.0244818 -2.0742 -1.40657 0.0244855 92.2181 -55.8012 -96.366 20.211 56.7646 -22.4805 -9.16654 -16.7652 -118.56 -7.45775 -0.300202 8.37019 -95.3329 -50.9625 71.102 -10.8079 5.84268 -62.6336 7.48069 10.8291 -107.836 16.2471 1.82026 0.786453 -24.193 -13.9205 -12.2912 -2.22667 -15.2332 -9.37623 
60.2246 91.0947 152.128 94.4652 -37.5916 95.029 -170.423 8.63402 96.2819 -33.9926 19.4781 -3.76102 65.798 6.61336 21.3989 35.3178 4.08504 8.13596 173.483 26.9789 79.9725 -31.0162 -0.971354 0.0732171 60.5706 -1.66146 3.2401 32.7999 -3.0164 2.47813 -0.615437 7.3902 -89.9055 12.0957 -1.1787 0.318213 0.42519 -1.16355 0.369785 -22.1143 -1.21984 -0.0507985 -2.1016 -1.21986 -0.0508081 92.7645 -55.1962 -95.6784 19.9413 56.6286 -21.6986 -8.86644 -16.3909 -118.978 -7.47202 -0.297006 8.48583 -96.7463 -52.0213 69.3777 -10.7078 5.38718 -62.393 7.01336 11.3435 -107.506 15.5954 1.76736 -0.0301383 -24.5572 -14.23 -12.2409 -1.81052 -15.6276 -9.77221 
60.2308 90.9989 152.464 94.5833 -37.6778 94.7941 -170.399 8.35246 96.208 -33.9633 19.7608 -3.89028 65.7832 6.25557 21.8483 35.4339 4.37761 7.90483 173.527 27.4137 79.9048 -32.2397 -1.68008 -0.100258 61.2824 -2.22584 2.32946 32.916 -2.84029 1.70442 -0.538607 7.39041 -89.9146 12.0948 -1.0303 0.283874 0.424211 -1.01681 0.328947 -22.1142 -1.06798 -0.038933 -2.10158 -1.06799 -0.0389303 92.9476 -54.7778 -95.4804 19.0941 57.1244 -20.4852 -8.54272 -16.2717 -119.223 -7.37529 -0.259188 8.54437 -98.0055 -52.898 67.8597 -10.0963 4.83861 -61.9432 7.22151 11.7907 -107.525 16.2319 1.86589 -0.166873 -24.9287 -14.5215 -12.3707 -1.29416 -16.0195 -9.74298 
60.2608 90.8865 152.872 94.4862 -37.8303 94.4164 -170.295 8.09153 96.1161 -33.7895 20.0667 -3.97522 65.6142 6.0983 21.9908 35.7678 4.68265 8.21824 173.628 28.4201 79.8661 -34.1565 -0.741583 -0.248107 61.9795 -2.79116 3.1988 33.1992 -2.75072 0.922258 -0.482071 7.37425 -89.9007 12.1269 -0.911245 0.298844 0.456223 -0.897192 0.338653 -22.0815 -0.958936 0.0111327 -2.06884 -0.95892 0.0111407 93.2389 -54.5023 -95.099 18.6378 57.4588 -19.9151 -8.31986 -16.5818 -119.467 -7.16417 -0.201396 8.32957 -98.9695 -53.5624 66.7184 -8.90148 4.54486 -62.6892 6.81766 11.8252 -107.047 17.4631 2.03372 0.0428494 -25.2208 -14.7636 -12.3202 -0.727332 -16.3473 -9.94972 
60.2864 90.5879 153.35 94.0378 -38.2464 93.8721 -170.133 8.22608 96.1 -34.0123 20.5016 -4.02422 65.7008 6.80893 22.5124 36.0433 4.45131 9.36444 173.589 29.9945 79.8812 -36.4809 0.65142 -0.218183 63.4767 -4.05136 5.01275 33.2251 -2.7053 0.726454 -0.447649 7.32319 -89.8784 12.2289 -0.83207 0.33582 0.558208 -0.816477 0.372105 -21.979 -0.894531 0.0702059 -1.9664 -0.894511 0.0702032 93.3152 -53.9905 -95.068 18.6926 57.0249 -19.495 -7.43625 -16.7327 -119.559 -6.48758 0.0140615 8.08749 -99.1936 -53.699 66.4499 -8.14082 4.81388 -63.6513 6.22262 11.3652 -106.496 18.2933 2.12043 0.962991 -24.8545 -14.853 -12.0767 -0.865383 -16.3579 -9.8826 
